<?xml version="1.0" encoding="utf-8"?>
<!-- Generator: Adobe Illustrator 24.0.0, SVG Export Plug-In . SVG Version: 6.00 Build 0)  -->
<svg version="1.1" id="Layer_1" xmlns="http://www.w3.org/2000/svg" xmlns:xlink="http://www.w3.org/1999/xlink" x="0px" y="0px"
	 viewBox="0 0 64 80" style="enable-background:new 0 0 64 80;" xml:space="preserve">
<style type="text/css">
	.st0{fill:#201550;}
	.st1{font-family:'OpenSans-Bold';}
	.st2{font-size:12px;}
</style>
<title>architecture and city-agency-manufacturer-powerplant-establishment-company-industry-factory-building</title>
<path class="st0" d="M62,42h-1v-9c0-0.6-0.4-1-1-1H38.8L37,22.8c-0.1-0.5-0.5-0.8-1-0.8H26c-0.5,0-0.9,0.3-1,0.8l-3,15.1l-3-15.1
	c-0.1-0.5-0.5-0.8-1-0.8H8c-0.5,0-0.9,0.3-1,0.8L3.2,42H2c-0.6,0-1,0.4-1,1v20c0,0.6,0.4,1,1,1h60c0.6,0,1-0.4,1-1V43
	C63,42.4,62.6,42,62,42z M40.8,42L40,38h19v4H40.8z M38.8,42H23.2L26,28h10L38.8,42z M59,34v2H39.6l-0.4-2H59z M35.2,24l0.4,2h-9.2
	l0.4-2H35.2z M17.2,24l0.4,2H8.4l0.4-2H17.2z M8,28h10l2.8,14H5.2L8,28z M17,62h-6v-6h6V62z M35,62h-6v-6h6V62z M53,62h-6v-6h6V62z
	 M61,62h-6v-7c0-0.6-0.4-1-1-1h-8c-0.6,0-1,0.4-1,1v7h-8v-7c0-0.6-0.4-1-1-1h-8c-0.6,0-1,0.4-1,1v7h-8v-7c0-0.6-0.4-1-1-1h-8
	c-0.6,0-1,0.4-1,1v7H3V44h58V62z"/>
<path class="st0" d="M6,52h4c0.6,0,1-0.4,1-1v-4c0-0.6-0.4-1-1-1H6c-0.6,0-1,0.4-1,1v4C5,51.6,5.4,52,6,52z M7,48h2v2H7V48z"/>
<path class="st0" d="M14,52h4c0.6,0,1-0.4,1-1v-4c0-0.6-0.4-1-1-1h-4c-0.6,0-1,0.4-1,1v4C13,51.6,13.4,52,14,52z M15,48h2v2h-2V48z"
	/>
<path class="st0" d="M22,52h4c0.6,0,1-0.4,1-1v-4c0-0.6-0.4-1-1-1h-4c-0.6,0-1,0.4-1,1v4C21,51.6,21.4,52,22,52z M23,48h2v2h-2V48z"
	/>
<path class="st0" d="M30,52h4c0.6,0,1-0.4,1-1v-4c0-0.6-0.4-1-1-1h-4c-0.6,0-1,0.4-1,1v4C29,51.6,29.4,52,30,52z M31,48h2v2h-2V48z"
	/>
<path class="st0" d="M38,52h4c0.6,0,1-0.4,1-1v-4c0-0.6-0.4-1-1-1h-4c-0.6,0-1,0.4-1,1v4C37,51.6,37.4,52,38,52z M39,48h2v2h-2V48z"
	/>
<path class="st0" d="M46,52h4c0.6,0,1-0.4,1-1v-4c0-0.6-0.4-1-1-1h-4c-0.6,0-1,0.4-1,1v4C45,51.6,45.4,52,46,52z M47,48h2v2h-2V48z"
	/>
<path class="st0" d="M54,52h4c0.6,0,1-0.4,1-1v-4c0-0.6-0.4-1-1-1h-4c-0.6,0-1,0.4-1,1v4C53,51.6,53.4,52,54,52z M55,48h2v2h-2V48z"
	/>
<path class="st0" d="M10,20c1.3,0,2.5-0.8,2.9-2.1c0.7-0.2,1.4-0.5,2-1.1c1.4,0.4,3,0,4-1c0.4,0.1,0.8,0.2,1.2,0.2c2.2,0,4-1.8,4-4
	c0-0.1,0-0.3,0-0.4c2.5-1.1,3.7-4,2.6-6.6c-1.1-2.5-4-3.7-6.6-2.6c-1.2,0.5-2.1,1.5-2.6,2.7c-2,0.3-3.4,2-3.4,4c0,0.2,0,0.4,0,0.5
	c-0.3,0.2-0.6,0.4-0.9,0.7C12.8,10.1,12.4,10,12,10c-2.2,0-4,1.8-4,4c0,0.2,0,0.5,0.1,0.7c-1.3,1.1-1.4,3-0.4,4.2
	C8.3,19.6,9.1,20,10,20z M9.6,16.1c0.5-0.2,0.8-0.8,0.5-1.3c0,0,0,0,0,0c-0.4-1,0-2.2,1-2.6c0.6-0.2,1.2-0.2,1.8,0.1
	c0.5,0.3,1.1,0.1,1.3-0.3c0.3-0.4,0.7-0.7,1.2-0.9c0.5-0.1,0.8-0.7,0.7-1.2c0,0,0-0.1,0-0.1C16.1,9.5,16,9.3,16,9c0-1.1,0.9-2,1.9-2
	c0,0,0.1,0,0.2,0c0.5,0,0.9-0.3,1-0.8c0.4-1.6,2-2.6,3.6-2.2c1.6,0.4,2.6,2,2.2,3.6c-0.3,1.1-1.2,2-2.3,2.2
	c-0.5,0.1-0.9,0.6-0.8,1.2c0,0.1,0,0.1,0,0.2c0.4,1-0.1,2.2-1.1,2.6c-0.6,0.2-1.2,0.2-1.7-0.1c-0.5-0.3-1.1-0.1-1.3,0.3
	c-0.6,0.9-1.7,1.2-2.7,0.7c-0.5-0.3-1.1-0.1-1.3,0.3c-0.4,0.6-1,0.9-1.7,0.9c-0.6,0-1,0.4-1,1c0,0.6-0.4,1-1,1c-0.6,0-1-0.4-1-1
	C9,16.6,9.2,16.2,9.6,16.1z"/>
<path class="st0" d="M26.1,14.7c-1.3,1.1-1.4,3-0.3,4.2c1.1,1.3,3,1.4,4.2,0.3c0.4-0.4,0.7-0.8,0.9-1.4c0.7-0.2,1.4-0.5,2-1.1
	c1.4,0.4,3,0,4-1c0.4,0.1,0.8,0.2,1.2,0.2c2.2,0,4-1.8,4-4c0-0.1,0-0.3,0-0.4c2.5-1.1,3.7-4,2.6-6.6c-1.1-2.5-4-3.7-6.6-2.6
	c-1.2,0.5-2.1,1.5-2.6,2.7c-2,0.3-3.4,2-3.4,4c0,0.2,0,0.4,0,0.5c-0.3,0.2-0.6,0.4-0.9,0.7C30.8,10.1,30.4,10,30,10
	c-2.2,0-4,1.8-4,4C26,14.2,26,14.5,26.1,14.7z M27.6,16.1c0.5-0.2,0.8-0.8,0.5-1.3c0,0,0,0,0,0c-0.4-1,0-2.2,1-2.6
	c0.6-0.2,1.2-0.2,1.8,0.1c0.5,0.3,1.1,0.1,1.3-0.3c0.3-0.4,0.7-0.7,1.2-0.9c0.5-0.1,0.8-0.7,0.7-1.2c0,0,0-0.1,0-0.1
	C34.1,9.5,34,9.3,34,9c0-1.1,0.9-2,1.9-2c0,0,0.1,0,0.2,0c0.5,0,0.9-0.3,1-0.8c0.4-1.6,2-2.6,3.6-2.2c1.6,0.4,2.6,2,2.2,3.6
	c-0.3,1.1-1.2,2-2.3,2.2c-0.5,0.1-0.9,0.6-0.8,1.2c0,0.1,0,0.1,0,0.2c0.4,1-0.1,2.2-1.1,2.6c-0.6,0.2-1.2,0.2-1.7-0.1
	c-0.5-0.3-1.1-0.1-1.3,0.3c-0.6,0.9-1.7,1.2-2.7,0.7c-0.5-0.3-1.1-0.1-1.3,0.3c-0.4,0.6-1,0.9-1.7,0.9c-0.6,0-1,0.4-1,1
	c0,0.6-0.4,1-1,1c-0.6,0-1-0.4-1-1C27,16.6,27.2,16.2,27.6,16.1z"/>
<path class="st0" d="M44.9,26.7l-0.6,0.6l1.4,1.4l0.6-0.6c1.5-1.5,3.9-1.5,5.4,0l0.6,0.6l1.4-1.4l-0.6-0.6
	C50.8,24.4,47.2,24.4,44.9,26.7z"/>
<path class="st0" d="M41.3,24.3l1.4,1.4l0.2-0.2c3.4-3.4,8.9-3.4,12.2,0c0,0,0,0,0,0l0.2,0.2l1.4-1.4l-0.2-0.2
	c-4.2-4.2-10.9-4.2-15.1,0c0,0,0,0,0,0L41.3,24.3z"/>
<text transform="matrix(1 0 0 1 2.7031 74.6465)" class="st0 st1 st2">Công ty SJ</text>
</svg>
