<?xml version="1.0" encoding="utf-8"?>
<!-- Generator: Adobe Illustrator 24.0.0, SVG Export Plug-In . SVG Version: 6.00 Build 0)  -->
<svg version="1.1" id="Layer_1" xmlns="http://www.w3.org/2000/svg" xmlns:xlink="http://www.w3.org/1999/xlink" x="0px" y="0px"
	 viewBox="0 0 64 80" style="enable-background:new 0 0 64 80;" xml:space="preserve">
<style type="text/css">
	.st0{fill:#BA2025;}
	.st1{font-family:'OpenSans-Bold';}
	.st2{font-size:6.0585px;}
</style>
<g>
	<rect x="33" y="20.6" class="st0" width="4" height="4"/>
	<rect x="21" y="32.6" class="st0" width="6" height="6"/>
	<rect x="13" y="40.6" class="st0" width="6" height="6"/>
	<rect x="21" y="40.6" class="st0" width="6" height="6"/>
	<rect x="21" y="24.6" class="st0" width="6" height="6"/>
	<rect x="51" y="54.6" class="st0" width="6" height="6"/>
	<polygon class="st0" points="6.6,16.6 27,16.6 27,14.6 7.6,14.6 	"/>
	<rect x="33" y="14.6" class="st0" width="4" height="4"/>
	<rect x="33" y="54.6" class="st0" width="6" height="6"/>
	<rect x="41" y="54.6" class="st0" width="8" height="6"/>
	<path class="st0" d="M3,19.9c0,0.3,0.1,0.5,0.2,0.7l1.3,2H27v-4H4.3C3.6,18.6,3,19.2,3,19.9z"/>
	<rect x="13" y="24.6" class="st0" width="6" height="6"/>
	<path class="st0" d="M3,60.6h2v-3.5c0-2.5,2-4.5,4.5-4.5s4.5,2,4.5,4.5v3.5h2v-3.5c0-2.5,2-4.5,4.5-4.5s4.5,2,4.5,4.5v3.5h2v-12H3
		V60.6z"/>
	<path class="st0" d="M9.5,54.6c-1.4,0-2.5,1.1-2.5,2.5v3.5h5v-3.5C12,55.7,10.9,54.6,9.5,54.6z"/>
	<path class="st0" d="M57,3.6c0-0.6-0.4-1-1-1H34c-0.6,0-1,0.4-1,1v3h24V3.6z"/>
	<path class="st0" d="M20.5,54.6c-1.4,0-2.5,1.1-2.5,2.5v3.5h5v-3.5C23,55.7,21.9,54.6,20.5,54.6z"/>
	<rect x="5" y="40.6" class="st0" width="6" height="6"/>
	<rect x="13" y="32.6" class="st0" width="6" height="6"/>
	<rect x="5" y="24.6" class="st0" width="6" height="6"/>
	<rect x="5" y="32.6" class="st0" width="6" height="6"/>
	<rect x="43" y="44.6" class="st0" width="4" height="4"/>
	<rect x="53" y="32.6" class="st0" width="4" height="4"/>
	<rect x="53" y="26.6" class="st0" width="4" height="4"/>
	<rect x="53" y="20.6" class="st0" width="4" height="4"/>
	<rect x="53" y="14.6" class="st0" width="4" height="4"/>
	<rect x="53" y="44.6" class="st0" width="4" height="4"/>
	<path class="st0" d="M58,8.6H32c-1.7,0-3,1.3-3,3v49h2v-8h28v8h2v-49C61,10,59.7,8.6,58,8.6z M39,50.6h-8v-38h8V50.6z M49,50.6h-8
		v-38h8V50.6z M59,50.6h-8v-38h8V50.6z"/>
	<rect x="53" y="38.6" class="st0" width="4" height="4"/>
	<rect x="43" y="38.6" class="st0" width="4" height="4"/>
	<rect x="43" y="26.6" class="st0" width="4" height="4"/>
	<rect x="33" y="44.6" class="st0" width="4" height="4"/>
	<rect x="43" y="32.6" class="st0" width="4" height="4"/>
	<rect x="43" y="14.6" class="st0" width="4" height="4"/>
	<rect x="33" y="32.6" class="st0" width="4" height="4"/>
	<rect x="33" y="38.6" class="st0" width="4" height="4"/>
	<rect x="33" y="26.6" class="st0" width="4" height="4"/>
	<rect x="43" y="20.6" class="st0" width="4" height="4"/>
</g>
<text transform="matrix(1 0 0 1 0.1399 69.0531)" class="st0 st1 st2">Công ty Trường Minh</text>
</svg>
