<svg xmlns:dc="http://purl.org/dc/elements/1.1/" xmlns:cc="http://creativecommons.org/ns#" xmlns:rdf="http://www.w3.org/1999/02/22-rdf-syntax-ns#" xmlns:svg="http://www.w3.org/2000/svg" xmlns="http://www.w3.org/2000/svg" xmlns:sodipodi="http://sodipodi.sourceforge.net/DTD/sodipodi-0.dtd" xmlns:inkscape="http://www.inkscape.org/namespaces/inkscape" version="1.1" x="0px" y="0px" viewBox="0 0 100 125"><g transform="translate(0,-952.36218)"><path style="color:#000000;enable-background:accumulate;" d="m 41.654844,959.34772 c -2.867343,0.12777 -3.436754,3.54786 -1.593669,5.81348 10.666344,4.48058 12.947266,15.92942 12.21813,25.62931 -0.165287,2.19873 -0.07834,4.26947 -0.187491,6.001 -0.03439,0.18554 -0.07088,0.38919 -0.09374,0.59385 -0.34465,-0.004 -0.631604,-0.0312 -0.999949,-0.0312 -1.875853,0 -4.990764,0.6001 -7.999594,1.71904 0.01613,-0.79075 -0.02735,-1.56576 -0.124993,-2.31289 -0.509577,-4.14534 -2.891267,-8.30009 -6.218434,-11.62696 -1.271988,-1.27186 -3.065507,-2.68852 -4.718511,-3.84439 -0.439672,-1.58514 -1.125509,-2.9204 -1.812408,-4.03193 -2.452248,-3.9681 -7.44464,-7.53159 -12.343122,-7.90758 -1.771288,0.009 -2.549451,0.22284 -3.124842,0.56259 -0.753906,0.71453 -0.836896,2.02259 -0.37498,2.59419 0.71587,0.88585 2.207893,1.07326 3.843554,1.25021 1.874041,0.12909 4.074403,1.18747 5.812205,2.43791 1.547215,1.11324 2.4555,2.41658 2.74986,2.93799 -1.499761,-0.28416 -2.901337,0.10425 -4.062293,0.8439 -2.739694,1.91093 -3.428238,5.67448 -2.531122,9.06402 1.008456,3.84913 4.013394,4.56327 6.249683,4.56327 4.696018,-0.2567 5.828475,-5.17959 6.062192,-7.1262 0.03697,-0.30792 -0.06506,-0.65442 0.0625,-0.65636 0.273229,-0.004 0.788503,0.37451 1.406179,0.93766 5.68569,4.08063 6.453824,9.28063 6.655912,13.37717 -2.247137,1.1136 -4.191532,2.5349 -5.155988,4.2508 -0.603369,0.9338 -0.410156,1.5189 0.124993,3.0005 1.797036,4.1684 3.256578,8.5395 4.562268,13.0022 -0.403372,0.706 -0.772299,1.4184 -0.999949,2.1566 -0.406485,1.5841 0.963569,2.0726 2.062395,1.6565 0.520775,1.8794 1.0499,3.7667 1.562421,5.6572 -1.24963,1.5714 -2.183456,3.1792 -2.624867,4.9071 -0.388047,1.8256 1.402645,2.0291 2.124892,0.9064 l 1.531173,-1.9378 c 0.999674,3.5918 2.060081,7.1562 3.281083,10.658 0.559057,1.2018 2.410863,1.3414 2.999848,0 l 12.124383,-27.8484 c -1.035327,-0.3613 -2.031136,-0.6783 -3.031096,-0.969 l -2.531121,5.876 c -1.35143,0.08 -2.580312,0.2217 -4.12479,0.8127 -2.311689,0.8199 -4.542797,2.4388 -6.593415,4.1882 -0.152679,0.1435 -0.288649,0.2941 -0.437478,0.4375 -0.444356,-1.7903 -0.905375,-3.6067 -1.406179,-5.4071 l 0.99995,-1.0314 c 5.208678,-6.0336 9.953999,-8.3446 16.936639,-11.4707 l -1.499924,3.5006 c 0.927916,0.3777 1.941617,0.842 2.874854,1.3753 l 4.187287,-9.6267 c 0.294963,-0.602 0.499975,-0.9813 0.499975,-1.6565 0,-1.0978 -1.062818,-1.2914 -3.031096,-2.438 -0.676532,-0.32484 -1.280076,-0.59602 -1.906153,-0.87507 8.791941,-3.6584 15.787604,-14.35836 15.93669,-27.0358 0.01188,-3.38902 -0.784715,-6.36528 -2.906102,-8.81398 -2.292377,-2.35955 -4.874748,-0.49077 -4.874753,2.6567 5.41703,12.21982 -0.0054,22.1396 -6.655911,28.25475 -1.507508,1.38615 -2.735066,2.89107 -3.906052,4.00067 -0.01156,0.008 -0.01963,0.023 -0.03125,0.0312 -1.7138,-0.5039 -3.874031,-0.83202 -7.218384,-0.93766 4.549284,-9.7273 3.130938,-24.17306 -4.687261,-34.03697 -1.976833,-2.44897 -4.253407,-3.95932 -7.062142,-4.03193 z m -6.374676,8.00134 c -1.324851,-0.1485 -2.122549,1.27993 -2.249885,2.21913 -0.207213,1.49521 0.813684,2.25368 1.843656,2.93799 1.952907,1.29758 3.357739,4.30881 4.968498,1.96908 0.781702,-1.45636 -1.739543,-5.67513 -3.968549,-6.93867 -0.21078,-0.0912 -0.404455,-0.16631 -0.59372,-0.18753 z m 29.248514,3.00051 c -0.172248,0.002 -0.349031,0.003 -0.499974,0.0312 -1.040711,0.46034 -0.644981,1.00289 -1.218689,2.00034 -1.142704,2.30481 -2.712146,3.45006 -3.593567,6.06352 -0.679767,2.07954 0.239392,2.46569 1.812408,1.09393 1.010188,-0.88096 2.323414,-2.48587 3.999797,-4.56326 0.864904,-0.85972 1.823766,-1.34999 1.906153,-1.90658 0.346746,-2.02037 -1.200389,-2.72947 -2.406128,-2.7192 z m 17.842843,8.00134 c -2.542802,0.24145 -0.815872,3.10982 -0.687465,5.56344 0.0677,1.29405 0.18269,2.62617 1.437427,3.21929 0.899286,0.42872 2.682594,0.3831 2.874854,-1.53151 0.02238,-2.68687 -2.141518,-7.20061 -3.624816,-7.25122 z m -56.715867,4.53202 c 0.716518,-0.0374 1.522093,0.16437 2.281134,0.37506 0.224893,0.0616 0.486047,0.21312 0.499974,0.25004 0.464439,1.23193 -0.0078,3.85529 -0.906204,5.15712 -0.505947,0.73313 -2.254847,1.40662 -3.312331,0.31255 -0.354434,-0.36672 -0.594055,-1.0248 -0.749962,-1.93783 -0.292362,-2.09334 0.413276,-3.3235 1.031197,-3.78188 0.327935,-0.24325 0.72628,-0.3526 1.156192,-0.37506 z m 47.685076,12.47084 c -0.504239,0.0347 -0.479065,0.54328 0.218739,1.37523 1.181243,1.38571 2.203263,1.64051 3.406077,2.75047 0.555438,0.456 0.557786,0.90313 1.156191,0.87513 0.601367,-0.2265 1.343765,-1.25241 0.468727,-2.59417 -0.205136,-0.32746 -0.764147,-0.31455 -1.406179,-0.59385 -1.369086,-0.80191 -2.44357,-1.4396 -3.15609,-1.68779 -0.277374,-0.0966 -0.519385,-0.13658 -0.687465,-0.12502 z m -48.122554,2.00034 c -1.752268,0.0608 -4.510268,1.43456 -5.780956,3.06299 -1.085664,1.7015 0.106653,3.3068 0.999949,3.7507 1.24317,0.6233 2.192195,-0.3358 3.062344,-1.3127 1.649891,-1.8526 4.631937,-2.6442 3.031096,-5.06342 -0.263904,-0.31447 -0.728344,-0.45784 -1.312433,-0.43757 z m 27.779838,3.00049 c 4.041961,0 8.192503,1.0869 11.780651,2.0316 l -2.15614,5.0321 c -2.239045,0.104 -4.156908,0.1561 -6.624663,0.9377 -3.162801,0.9291 -6.193936,2.7992 -8.999543,4.782 -1.63706,1.2746 -3.100577,2.5478 -4.343529,3.8444 -0.296871,-0.8981 -0.610765,-1.7923 -0.937453,-2.6567 -0.397326,-1.0873 -0.774186,-2.0317 -1.156191,-2.813 -0.766086,-1.6999 -1.608155,-3.3035 -2.56237,-4.7195 1.281696,-2.1335 7.903238,-6.4386 14.999238,-6.4386 z m 2.74986,23.0039 -6.968396,16.1589 c -0.870418,-2.5925 -1.662057,-5.748 -2.468624,-9.0327 2.852787,-3.2882 5.717699,-5.0893 9.43702,-7.1262 z" fill="#000000" stroke="none" marker="none" visibility="visible" display="inline" overflow="visible"/></g><text x="0" y="115" fill="#000000" font-size="5px" font-weight="bold" font-family="'Helvetica Neue', Helvetica, Arial-Unicode, Arial, Sans-serif">Created by stzuana</text><text x="0" y="120" fill="#000000" font-size="5px" font-weight="bold" font-family="'Helvetica Neue', Helvetica, Arial-Unicode, Arial, Sans-serif">from the Noun Project</text></svg>