<svg xmlns="http://www.w3.org/2000/svg" xmlns:xlink="http://www.w3.org/1999/xlink" version="1.1" x="0px" y="0px" viewBox="0 0 32 40" enable-background="new 0 0 32 32" xml:space="preserve"><g><g><path d="M30.7,27L22.1,8c-0.1-0.3-0.4-0.5-0.7-0.6c-0.3-0.1-0.7,0-0.9,0.3L7.7,20.5c-0.2,0.2-0.3,0.6-0.3,0.9    c0.1,0.3,0.3,0.6,0.6,0.7l19,8.6c0.4,0.2,0.8,0.3,1.3,0.3c0.9,0,1.8-0.5,2.3-1.2C31.1,29,31.1,28,30.7,27z M17,23.9l7-7l2.7,5.8    l-3.8,3.8L17,23.9z M20.8,10.2l2.2,4.9l-8,8l-4.9-2.2L20.8,10.2z M28.9,28.7c-0.2,0.3-0.6,0.4-1,0.2l-3.1-1.4l2.7-2.7l1.4,3.1    C29,28.2,29,28.5,28.9,28.7z"/><path d="M14,13c0.2,0,0.3,0,0.5-0.1c0.5-0.3,0.7-0.9,0.4-1.4c-1.2-2.2-1.3-4.5-0.2-6.3C15.5,3.9,16.8,3,18,3c0.6,0,1-0.4,1-1    s-0.4-1-1-1c-2,0-3.9,1.2-5.1,3.2c-1.4,2.4-1.4,5.5,0.2,8.3C13.3,12.8,13.6,13,14,13z"/><path d="M2.4,9.9C3.7,9.4,5.2,9.4,6.6,10c1.6,0.7,2.9,1.9,3.4,3.4c0.2,0.4,0.5,0.6,0.9,0.6c0.1,0,0.2,0,0.4-0.1    c0.5-0.2,0.8-0.8,0.6-1.3C11.2,10.7,9.5,9,7.4,8.2c-1.9-0.8-4-0.8-5.8-0.1C1.1,8.3,0.9,8.9,1.1,9.4C1.3,9.9,1.9,10.1,2.4,9.9z"/><path d="M9.6,16.9c0.5,0.2,1.1-0.1,1.3-0.6c0.2-0.5-0.1-1.1-0.6-1.3c-1.7-0.6-4.5-0.4-6.6,1.3c-2,1.5-3,3.9-2.7,6.8    c0,0.5,0.5,0.9,1,0.9c0,0,0.1,0,0.1,0c0.5-0.1,1-0.5,0.9-1.1c-0.3-2.7,0.9-4.2,1.9-5C6.4,16.8,8.5,16.5,9.6,16.9z"/><circle cx="8" cy="4" r="2"/><circle cx="4" cy="13" r="2"/></g></g><text x="0" y="47" fill="#000000" font-size="5px" font-weight="bold" font-family="'Helvetica Neue', Helvetica, Arial-Unicode, Arial, Sans-serif">Created by Icon Lauk</text><text x="0" y="52" fill="#000000" font-size="5px" font-weight="bold" font-family="'Helvetica Neue', Helvetica, Arial-Unicode, Arial, Sans-serif">from the Noun Project</text></svg>