<svg xmlns="http://www.w3.org/2000/svg" data-name="Layer 1" viewBox="0 0 100 125" x="0px" y="0px"><title>places_</title><path d="M76,24.4a1.86,1.86,0,0,0-2.53-.66L68,26.93a6,6,0,0,0-.5-.51c-2.39-2-6.41-1.34-8.6,1.33a7,7,0,0,0-1.47,3.19c-2.82-.25-6.2-.41-10.34-.41-21.1,0-23.38,3.87-23.38,5.54a2.49,2.49,0,0,0,.94,1.82,2,2,0,0,0,.38.49L45.27,55.6V77.9l-7.73.92c-.21.05-.43.1-.62.16l-.37.09c-.07,0-.11.06-.17.08-2.62.91-2.64,2.11-2.64,2.66,0,1,0,3.82,13.38,3.82S60.5,82.76,60.5,81.81s0-3.54-11.54-3.8V55.6L69.17,38.38a1.79,1.79,0,0,0,.39-.49,2.49,2.49,0,0,0,.93-1.82c0-.6-.31-1.5-1.69-2.39a6.77,6.77,0,0,0,.68-3.32l5.86-3.43A1.86,1.86,0,0,0,76,24.4Zm-16.71,12a4.92,4.92,0,0,0,1.09.67c-.93.13-2,.25-3,.35l1.88-1.1Zm2.48-6.35a3.1,3.1,0,0,1,2.29-1.19,1.76,1.76,0,0,1,1.12.37c.88.73.82,2.33-.14,3.5A3,3,0,0,1,62.76,34a1.71,1.71,0,0,1-1.11-.37C60.76,32.86,60.82,31.26,61.78,30.09ZM47.12,34.22c3,0,5.65.11,8,.27l-4.43,2.59a1.78,1.78,0,0,0-.69.8c-.93,0-1.87,0-2.87,0-9.47,0-15.68-1-18.42-1.84C31.44,35.21,37.65,34.22,47.12,34.22Zm0,18.1L33.66,40.85a99.26,99.26,0,0,0,13.46.76,99,99,0,0,0,13.45-.76Z"/><text x="0" y="115" fill="#000000" font-size="5px" font-weight="bold" font-family="'Helvetica Neue', Helvetica, Arial-Unicode, Arial, Sans-serif">Created by Jack Magma</text><text x="0" y="120" fill="#000000" font-size="5px" font-weight="bold" font-family="'Helvetica Neue', Helvetica, Arial-Unicode, Arial, Sans-serif">from the Noun Project</text></svg>