<svg xmlns="http://www.w3.org/2000/svg" xmlns:xlink="http://www.w3.org/1999/xlink" version="1.1" x="0px" y="0px" viewBox="0 0 50 62.5" style="enable-background:new 0 0 50 50;" xml:space="preserve"><g><path d="M34.5,12.2H5c-0.4,0-0.7,0.2-0.9,0.6c-0.2,0.4-0.1,0.8,0.1,1.1l14.5,17V46h-6.8c-0.6,0-1,0.4-1,1s0.4,1,1,1h15.6   c0.6,0,1-0.4,1-1s-0.4-1-1-1h-6.8V30.9l14.5-17c0.3-0.3,0.3-0.7,0.1-1.1C35.2,12.4,34.8,12.2,34.5,12.2z M25,22.7H14.4l-7.3-8.5   h25.1L25,22.7z"/><path d="M45,3.5c-0.2-0.9-0.2-0.9-7.5-0.8c-1.1,0-1.9,0-2,0c-0.3,0-0.6,0.1-0.9,0.3c-6.1,6.7-6.2,7.1-6.3,7.4   c-0.1,0.5,0.2,1.1,0.7,1.2c0.1,0,0.2,0,0.2,0c0.4,0,0.7-0.2,0.9-0.6c0.4-0.5,3.1-3.6,5.6-6.4c0.3,0,0.9,0,1.7,0   c1.8,0,5.3-0.1,6.2,0c0.2,0.1,0.5,0.1,0.7,0C44.8,4.4,45.1,3.9,45,3.5z"/><path d="M20.8,20.9c0.2,0.1,0.4,0.2,0.6,0.2c0.3,0,0.6-0.1,0.8-0.4l3.5-4.3c0.3-0.4,0.3-1.1-0.2-1.4c-0.4-0.3-1.1-0.3-1.4,0.2   l-3.5,4.3C20.3,19.9,20.4,20.6,20.8,20.9z"/></g><text x="0" y="65" fill="#000000" font-size="5px" font-weight="bold" font-family="'Helvetica Neue', Helvetica, Arial-Unicode, Arial, Sans-serif">Created by Miroslava</text><text x="0" y="70" fill="#000000" font-size="5px" font-weight="bold" font-family="'Helvetica Neue', Helvetica, Arial-Unicode, Arial, Sans-serif">from the Noun Project</text></svg>