<svg xmlns:dc="http://purl.org/dc/elements/1.1/" xmlns:cc="http://creativecommons.org/ns#" xmlns:rdf="http://www.w3.org/1999/02/22-rdf-syntax-ns#" xmlns:svg="http://www.w3.org/2000/svg" xmlns="http://www.w3.org/2000/svg" xmlns:sodipodi="http://sodipodi.sourceforge.net/DTD/sodipodi-0.dtd" xmlns:inkscape="http://www.inkscape.org/namespaces/inkscape" viewBox="0 0 47.999997 60" version="1.1" x="0px" y="0px"><path style="color:#000000;enable-background:accumulate;" d="M 24 0 C 20.3429 0 16.686854 1.2466644 13.714844 3.7402344 C 7.7708343 8.7273845 6.2628986 17.27886 10.142578 23.998047 L 21.833984 40.75 C 22.279784 41.52217 23.1084 42 24 42 C 24.8917 42 25.720216 41.52214 26.166016 40.75 L 37.857422 23.998047 C 41.737122 17.27885 40.229156 8.7273745 34.285156 3.7402344 C 31.313156 1.2466644 27.6571 -1.4456029e-19 24 0 z M 24 1.9941406 C 27.1977 1.9941406 30.3947 3.0875175 33 5.2734375 C 38.2062 9.6415575 39.523013 17.09462 36.132812 22.982422 L 24.433594 39.75 C 24.343594 39.90614 24.1803 40 24 40 C 23.8197 40 23.656506 39.9061 23.566406 39.75 L 11.867188 22.982422 C 8.477058 17.09462 9.79378 9.6415675 15 5.2734375 C 17.60532 3.0875175 20.8023 1.9941406 24 1.9941406 z M 20 9 C 18.355 9 17 10.35499 17 12 L 17 14 C 17 14.554 17.446 15 18 15 C 18.554 15 19 14.554 19 14 L 19 12 C 19 11.43587 19.4359 11 20 11 L 22 11 C 22.554 11 23 10.554 23 10 C 23 9.446 22.554 9 22 9 L 20 9 z M 26 9 C 25.446 9 25 9.446 25 10 C 25 10.554 25.446 11 26 11 L 28 11 C 28.5641 11 29 11.43587 29 12 L 29 14 C 29 14.554 29.446 15 30 15 C 30.554 15 31 14.554 31 14 L 31 12 C 31 10.35499 29.645 9 28 9 L 26 9 z M 18 17 C 17.446 17 17 17.446 17 18 L 17 20 C 17 21.64501 18.355 23 20 23 L 22 23 C 22.554 23 23 22.554 23 22 C 23 21.446 22.554 21 22 21 L 20 21 C 19.4359 21 19 20.56413 19 20 L 19 18 C 19 17.446 18.554 17 18 17 z M 30 17 C 29.446 17 29 17.446 29 18 L 29 20 C 29 20.56413 28.5641 21 28 21 L 26 21 C 25.446 21 25 21.446 25 22 C 25 22.554 25.446 23 26 23 L 28 23 C 29.645 23 31 21.64501 31 20 L 31 18 C 31 17.446 30.554 17 30 17 z M 15.5 36.5 C 15.35634 36.50036 15.214454 36.531697 15.083984 36.591797 C 13.278334 37.435377 11.883699 38.665821 11.292969 40.025391 C 10.691539 41.409591 11.032514 43.035778 12.152344 44.273438 C 14.392044 46.748737 18.95441 48 24 48 C 29.0456 48 33.606003 46.748767 35.845703 44.273438 C 36.965503 43.035778 37.308531 41.409591 36.707031 40.025391 C 36.120231 38.674721 34.711028 37.436823 32.923828 36.595703 C 32.793428 36.535603 32.6437 36.5004 32.5 36.5 C 31.9477 36.5 31.5 36.94772 31.5 37.5 C 31.5008 37.8913 31.729837 38.246183 32.085938 38.408203 C 33.666638 39.131843 34.563994 40.115496 34.871094 40.822266 C 35.178194 41.529046 35.103981 42.113011 34.363281 42.931641 C 32.882181 44.568721 28.6779 46 24 46 C 19.32211 46 15.118089 44.568891 13.636719 42.931641 C 12.896029 42.113021 12.819863 41.529036 13.126953 40.822266 C 13.434043 40.115486 14.335326 39.133796 15.916016 38.410156 C 16.271436 38.247556 16.49955 37.89084 16.5 37.5 C 16.5 36.94772 16.05228 36.5 15.5 36.5 z " transform="translate(-1.9073486e-6,0)" display="inline" overflow="visible" visibility="visible" fill="#000000" fill-opacity="1" fill-rule="evenodd" stroke="none" marker="none"/><text x="0" y="63" fill="#000000" font-size="5px" font-weight="bold" font-family="'Helvetica Neue', Helvetica, Arial-Unicode, Arial, Sans-serif">Created by ICONCRAFT</text><text x="0" y="68" fill="#000000" font-size="5px" font-weight="bold" font-family="'Helvetica Neue', Helvetica, Arial-Unicode, Arial, Sans-serif">from the Noun Project</text></svg>