<svg xmlns:dc="http://purl.org/dc/elements/1.1/" xmlns:cc="http://creativecommons.org/ns#" xmlns:rdf="http://www.w3.org/1999/02/22-rdf-syntax-ns#" xmlns:svg="http://www.w3.org/2000/svg" xmlns="http://www.w3.org/2000/svg" xmlns:sodipodi="http://sodipodi.sourceforge.net/DTD/sodipodi-0.dtd" xmlns:inkscape="http://www.inkscape.org/namespaces/inkscape" version="1.1" x="0px" y="0px" viewBox="0 0 100 125"><g transform="translate(0,-952.36218)"><path style="text-indent:0;text-transform:none;direction:ltr;block-progression:tb;baseline-shift:baseline;color:#000000;enable-background:accumulate;" d="m 50,961.36107 c -16.0431,0 -29,13.527 -29,29.99999 0,5.9408 1.7893,10.66824 4.5625,15.15624 l 21.875,35.4063 a 3.0003,3.0003 0 0 0 5.125,0 l 21.875,-35.4063 C 77.2107,1002.0292 79,997.30186 79,991.36106 79,974.88807 66.0431,961.36107 50,961.36107 z m 0,6 c 12.6757,0 23,10.6496 23,23.99999 0,4.8078 -1.2601,8.0714 -3.6875,12.00004 L 50,1034.6111 30.6875,1003.3611 C 28.2601,999.43246 27,996.16876 27,991.36106 27,978.01067 37.3243,967.36107 50,967.36107 z m 0,8 c -8.2487,0 -15,6.7513 -15,14.99999 0,8.2486 6.7512,15.00004 15,15.00004 8.2488,0 15,-6.75144 15,-15.00004 0,-8.24869 -6.7513,-14.99999 -15,-14.99999 z m 0,6 c 5.0061,0 9,3.9939 9,8.99999 0,5.0059 -3.994,9 -9,9 -5.006,0 -9,-3.9941 -9,-9 0,-5.00609 3.9939,-8.99999 9,-8.99999 z" fill="#000000" fill-opacity="1" marker="none" visibility="visible" display="inline" overflow="visible"/></g><text x="0" y="115" fill="#000000" font-size="5px" font-weight="bold" font-family="'Helvetica Neue', Helvetica, Arial-Unicode, Arial, Sans-serif">Created by Kimmi Studio</text><text x="0" y="120" fill="#000000" font-size="5px" font-weight="bold" font-family="'Helvetica Neue', Helvetica, Arial-Unicode, Arial, Sans-serif">from the Noun Project</text></svg>