<svg xmlns:dc="http://purl.org/dc/elements/1.1/" xmlns:cc="http://creativecommons.org/ns#" xmlns:rdf="http://www.w3.org/1999/02/22-rdf-syntax-ns#" xmlns:svg="http://www.w3.org/2000/svg" xmlns="http://www.w3.org/2000/svg" xmlns:sodipodi="http://sodipodi.sourceforge.net/DTD/sodipodi-0.dtd" xmlns:inkscape="http://www.inkscape.org/namespaces/inkscape" version="1.1" x="0px" y="0px" viewBox="0 0 100 125"><g transform="translate(0,-952.36205)"><path style="text-indent:0;text-transform:none;direction:ltr;block-progression:tb;baseline-shift:baseline;color:#000000;enable-background:accumulate;" d="m 49.7947,958.39732 c -13.821,0 -25.0597,11.2489 -25.0597,25.0597 0,2.8744 1.2836,6.2059 3.1197,10.1578 1.8362,3.9518 4.2971,8.40568 6.8985,12.85618 5.2027,8.901 11.01,17.8638 13.2768,22.1166 a 2.000005,2.000005 0 0 0 3.5304,0 c 2.2611,-4.2509 8.0657,-13.2141 13.2671,-22.115 2.6007,-4.4504 5.0612,-8.90468 6.8972,-12.85648 1.836,-3.9518 3.1197,-7.2831 3.1197,-10.1575 0,-13.8108 -11.2378,-25.0597 -25.0497,-25.0597 z m 0,3.9994 c 11.6482,0 21.0503,9.4111 21.0503,21.0603 0,1.4706 -1.0038,4.7193 -2.7475,8.4725 -1.7437,3.7532 -4.155,8.12888 -6.7231,12.52338 -4.1506,7.1028 -8.681,14.2017 -11.5809,19.1347 -2.9028,-4.9322 -7.4353,-12.0315 -11.5872,-19.1347 -2.5686,-4.3945 -4.9802,-8.77058 -6.7241,-12.52368 -1.7438,-3.7532 -2.7478,-7.0016 -2.7478,-8.4722 0,-11.6492 9.4013,-21.0603 21.0603,-21.0603 z" fill="#000000" fill-opacity="1" fill-rule="evenodd" stroke="none" marker="none" visibility="visible" display="inline" overflow="visible"/><path style="text-indent:0;text-transform:none;direction:ltr;block-progression:tb;baseline-shift:baseline;color:#000000;enable-background:accumulate;" d="m 30.9919,1026.3126 a 2.000005,2.000005 0 0 0 -1.065,0.3613 c -2.7149,1.8495 -4.6619,4.3552 -4.6619,7.3338 0,2.027 0.9382,3.8896 2.3513,5.389 1.4131,1.4995 3.3108,2.7218 5.5653,3.7332 4.5091,2.0228 10.49,3.1969 17.0884,3.1969 6.5936,0 12.572,-1.1741 17.0797,-3.1969 2.2539,-1.0114 4.1512,-2.2337 5.5641,-3.7332 1.4128,-1.4994 2.3512,-3.362 2.3512,-5.389 0,-2.922 -1.8791,-5.3966 -4.5037,-7.221 a 2.000005,2.000005 0 1 0 -2.2828,3.284 c 1.9907,1.3839 2.7869,2.7517 2.7869,3.937 0,0.8236 -0.3486,1.676 -1.2625,2.6459 -0.914,0.97 -2.3836,1.9713 -4.2907,2.8272 -3.8142,1.7116 -9.3333,2.8466 -15.4422,2.8466 -6.1141,0 -11.6358,-1.1349 -15.4512,-2.8466 -1.9077,-0.8559 -3.3778,-1.8572 -4.2919,-2.8272 -0.914,-0.9699 -1.2625,-1.8223 -1.2625,-2.6459 0,-1.2107 0.8304,-2.6085 2.9147,-4.0285 a 2.000005,2.000005 0 0 0 -1.1872,-3.6666 z" fill="#000000" fill-opacity="1" fill-rule="evenodd" stroke="none" marker="none" visibility="visible" display="inline" overflow="visible"/><path style="text-indent:0;text-transform:none;direction:ltr;block-progression:tb;baseline-shift:baseline;color:#000000;enable-background:accumulate;" d="m 42.22,1027.6614 a 2.000005,2.000005 0 0 0 -1.064,0.3634 c -1.3071,0.8941 -2.4535,2.2487 -2.4535,4.0106 0,1.1956 0.5641,2.2653 1.2982,3.0432 0.734,0.7779 1.6486,1.3504 2.6878,1.8163 2.0783,0.9318 4.6995,1.4319 7.5815,1.4319 2.8821,0 5.5012,-0.5 7.5775,-1.4322 1.0382,-0.4662 1.9518,-1.0391 2.6847,-1.8172 0.733,-0.7782 1.295,-1.8477 1.295,-3.042 0,-1.7309 -1.1055,-3.0661 -2.3715,-3.9556 a 2.000005,2.000005 0 1 0 -2.2994,3.2729 c 0.6536,0.4592 0.6712,0.7176 0.6712,0.6827 0,-0.01 0.0274,0.051 -0.2068,0.2995 -0.2343,0.2487 -0.72,0.6005 -1.4113,0.9109 -1.3827,0.6208 -3.5424,1.0812 -5.9394,1.0812 -2.3969,0 -4.5595,-0.4605 -5.9453,-1.0818 -0.6928,-0.3106 -1.1803,-0.6627 -1.4153,-0.9117 -0.235,-0.2489 -0.2072,-0.3084 -0.2072,-0.2981 0,0.025 0.0176,-0.2347 0.7119,-0.7096 a 2.000005,2.000005 0 0 0 -1.1941,-3.6644 z" fill="#000000" fill-opacity="1" fill-rule="evenodd" stroke="none" marker="none" visibility="visible" display="inline" overflow="visible"/><path style="text-indent:0;text-transform:none;direction:ltr;block-progression:tb;baseline-shift:baseline;color:#000000;enable-background:accumulate;" d="m 49.7947,966.66732 c -8.8492,0 -16.0697,7.20871 -16.0697,16.05971 0,8.8423 7.2188,16.0597 16.0697,16.0597 8.8424,0 16.0597,-7.2174 16.0597,-16.0597 0,-8.851 -7.219,-16.05971 -16.0597,-16.05971 z m 0,3.99941 c 6.6794,0 12.0603,5.3713 12.0603,12.0603 0,6.67759 -5.3826,12.06029 -12.0603,12.06029 -6.689,0 -12.0703,-5.3827 -12.0703,-12.06029 0,-6.689 5.3796,-12.0603 12.0703,-12.0603 z" fill="#000000" fill-opacity="1" fill-rule="evenodd" stroke="none" marker="none" visibility="visible" display="inline" overflow="visible"/></g><text x="0" y="115" fill="#000000" font-size="5px" font-weight="bold" font-family="'Helvetica Neue', Helvetica, Arial-Unicode, Arial, Sans-serif">Created by AliWijaya</text><text x="0" y="120" fill="#000000" font-size="5px" font-weight="bold" font-family="'Helvetica Neue', Helvetica, Arial-Unicode, Arial, Sans-serif">from the Noun Project</text></svg>