<?xml version="1.0" encoding="utf-8"?>
<!-- Generator: Adobe Illustrator 24.0.0, SVG Export Plug-In . SVG Version: 6.00 Build 0)  -->
<svg version="1.1" id="Layer_1" xmlns="http://www.w3.org/2000/svg" xmlns:xlink="http://www.w3.org/1999/xlink" x="0px" y="0px"
	 viewBox="0 0 100 125" style="enable-background:new 0 0 100 125;" xml:space="preserve">
<style type="text/css">
	.st0{fill:#2B1753;}
</style>
<path class="st0" d="M51.5,31.5c-7.1,0-12.8-5.8-12.8-12.8S44.5,5.8,51.5,5.8s12.8,5.8,12.8,12.8S58.6,31.5,51.5,31.5z M51.5,9.3
	c-5.1,0-9.3,4.2-9.3,9.3s4.2,9.3,9.3,9.3s9.3-4.2,9.3-9.3S56.7,9.3,51.5,9.3z"/>
<path class="st0" d="M58,95.6H45.1c-3.5,0-6.4-2.9-6.4-6.4V71.6c-3.4-0.1-6.2-2.9-6.2-6.4V39.9c0-3.5,2.9-6.4,6.4-6.4h25.4
	c3.5,0,6.4,2.9,6.4,6.4v25.4c0,3.5-2.8,6.3-6.2,6.4v17.5C64.4,92.7,61.5,95.6,58,95.6z M38.9,37.1c-1.6,0-2.8,1.3-2.8,2.8v25.4
	c0,1.6,1.3,2.8,2.8,2.8h1.6c1,0,1.8,0.8,1.8,1.8v19.3c0,1.6,1.3,2.8,2.8,2.8H58c1.6,0,2.8-1.3,2.8-2.8V69.9c0-1,0.8-1.8,1.8-1.8h1.6
	c1.6,0,2.8-1.3,2.8-2.8V39.9c0-1.6-1.3-2.8-2.8-2.8C64.2,37.1,38.9,37.1,38.9,37.1z"/>
<path class="st0" d="M53.5,66.3h-4c-1.8,0-3.3-1.5-3.3-3.3v-3.5h-3.5c-1.8,0-3.3-1.5-3.3-3.3v-4c0-1.8,1.5-3.3,3.3-3.3h3.5v-3.5
	c0-1.8,1.5-3.3,3.3-3.3h4c1.8,0,3.3,1.5,3.3,3.3V49h3.5c1.8,0,3.3,1.5,3.3,3.3v4c0,1.8-1.5,3.3-3.3,3.3h-3.5V63
	C56.8,64.8,55.4,66.3,53.5,66.3z M49.8,62.8h3.5v-5c0-1,0.8-1.8,1.8-1.8h5v-3.5h-5c-1,0-1.8-0.8-1.8-1.8v-5h-3.5v5
	c0,1-0.8,1.8-1.8,1.8h-5V56h5c1,0,1.8,0.8,1.8,1.8V62.8z M60.3,52.5L60.3,52.5L60.3,52.5z"/>
</svg>
