<?xml version="1.0" encoding="utf-8"?>
<!-- Generator: Adobe Illustrator 24.0.0, SVG Export Plug-In . SVG Version: 6.00 Build 0)  -->
<svg version="1.1" id="Layer_1" xmlns="http://www.w3.org/2000/svg" xmlns:xlink="http://www.w3.org/1999/xlink" x="0px" y="0px"
	 viewBox="0 0 134 167.5" style="enable-background:new 0 0 134 167.5;" xml:space="preserve">
<style type="text/css">
	.st0{fill:#6C2311;}
</style>
<g>
	<path class="st0" d="M111.9,73.1c1.5-2.4,2.4-5.2,2.8-8.4c0.5-4.6,0.4-11.5-2.9-18.2l-0.2-0.4l-0.6-0.2l-3.5-10.2
		c1.5-5.6-0.4-11.7-1.6-14.6c8.4-3.8,7.3-10.3,6.5-12.9c-0.2-0.6-0.7-0.9-1.3-0.8c-0.9,0.1-2.1,0.1-3.6-0.1
		c-0.4-0.3-0.9-0.4-1.5-0.3c-0.1,0-0.3,0-0.4,0C102,6.5,97.5,5.4,94,4.5c-4.6-1.2-9.3-1.9-14-2.1c-3-0.4-6-0.5-9-0.4
		C57.5,2.4,48.4,6.8,43.8,15c-11,19.6,7.7,54.2,10,58.3l-4.4,17.6c-22.6,7.1-29.7,38.5-30,39.9l-0.3,1.2H113v-1
		c0-20.4-22.7-31.5-27-33.4L87.6,79C91.8,80.6,104.9,84.3,111.9,73.1z M112.7,64.4c-0.3,2.9-1.1,5.4-2.5,7.6
		c-4,6.4-10.2,7.3-15.1,6.8l-14-15.7c9-6.8,7.4-17.1,6.3-21.2l22.8,5.9C113.1,53.9,113.2,60.2,112.7,64.4z M58.3,69.3
		c-3.7-6.8-26.6-51.2,1.3-63.7c3.4-1,7.2-1.5,11.5-1.6c5.7-0.2,11.7,0.5,17.7,2.1C95,7.7,103.1,9.5,106.4,9c0.1,0,0.2,0,0.2,0.1
		c0.5,1.6,1.1,4.6-0.7,7.5c-2.2,3.4-7,5.6-14.4,6.5c-0.2,0-14.7,2-16.8,13.5c-4.4-1-9,1.7-10.2,6.1c-1.3,4.9,0.3,10.2,4.1,13.5
		C66.8,61.6,61.8,66.4,58.3,69.3z M70.6,55.3c-3.8-2.7-5.5-7.5-4.3-12c1-3.5,4.6-5.6,8.1-4.7l10.8,2.8c0.8,2.4,4,13.5-5.6,20.4
		L70.6,55.3z M105.5,35.4l-0.1,0.3l3.3,9.6l-28.9-7.4C81,30.9,87.3,27,91.8,25c3.9-0.5,7.2-1.3,9.8-2.5c0.9-0.2,1.7-0.5,2.5-0.7
		C105.1,24.5,106.9,30.4,105.5,35.4z M110.7,127.4H61c-0.2-6.8-4.6-10.1-4.8-10.3l-1.2,1.6c0.2,0.1,3.8,2.9,4,8.6H41.1
		c-7.7,0-12.8-8-9.5-14.9c2.6-5.5,6.2-11.5,11.2-16.3c2.2-1.4,4.6-2.6,7.2-3.4c3,2.2,20.5,14.3,35,6.5
		C88.2,100.7,108.1,110.4,110.7,127.4z M85.8,76.1l-1.8,19.9c-8.8,3.8-18.5,0.6-25.1-2.7c-2.8-1.4-4.3-4.6-3.6-7.7l3-13.8
		c3.6-2.8,9.5-8.1,11.8-14.3l8.8,6.3l13,14.6c-2.7-0.6-4.6-1.5-4.8-1.6L85.8,76.1z"/>
	<path class="st0" d="M106.4,51.5c1.8,4.7,1.7,9.5,1.3,12.6c-0.2,2.2-0.9,4-1.9,5.6c-1.1,1.7-2.4,2.8-4.1,3.5
		c-1.3,0.5-2.7,0.8-4.3,0.8v2c1.9,0,3.6-0.3,5.1-0.9c2-0.8,3.7-2.3,5-4.2c1.2-1.8,1.9-4,2.2-6.4c0.4-3.4,0.4-8.5-1.5-13.5
		L106.4,51.5z"/>
</g>
</svg>
