<?xml version="1.0" encoding="utf-8"?>
<!-- Generator: Adobe Illustrator 24.0.0, SVG Export Plug-In . SVG Version: 6.00 Build 0)  -->
<svg version="1.1" id="Layer_1" xmlns="http://www.w3.org/2000/svg" xmlns:xlink="http://www.w3.org/1999/xlink" x="0px" y="0px"
	 viewBox="0 0 100 125" style="enable-background:new 0 0 100 125;" xml:space="preserve">
<style type="text/css">
	.st0{fill:#29307C;stroke:#FFFFFF;stroke-width:8;stroke-miterlimit:10;}
	.st1{fill:#29307C;}
	.st2{fill:#29307C;stroke:#FFFFFF;stroke-width:4;stroke-miterlimit:10;}
</style>
<g>
	<g>
		<path class="st0" d="M34.6-87.4"/>
		<path class="st0" d="M135.2-87.4"/>
		<path class="st0" d="M125-115.7"/>
		<path class="st0" d="M84.9-76.2"/>
		<path class="st0" d="M44.7-115.7"/>
	</g>
</g>
<g>
	<path class="st1" d="M77.6,95H22.4v-1.8c0-17.6,12.4-32,27.6-32s27.6,14.3,27.6,32V95z M26,91.4H74c-0.8-14.9-11.3-26.7-24-26.7
		C37.2,64.8,26.7,76.6,26,91.4z"/>
	<path class="st1" d="M50,64.8c-10.7,0-19.4-8.7-19.4-19.4c0-4,1.2-7.9,3.6-11.2l2.9,2c-1.9,2.7-2.9,5.9-2.9,9.2
		c0,8.8,7.1,15.9,15.9,15.9c8.8,0,15.9-7.1,15.9-15.9c0-3.3-1-6.5-2.9-9.2l2.9-2c2.3,3.3,3.6,7.2,3.6,11.2
		C69.4,56,60.7,64.8,50,64.8z"/>
	<g>
		<path class="st1" d="M37,36.1l-2.9-2c3.6-5.1,9.6-8.2,15.9-8.2c6.3,0,12.2,3.1,15.9,8.2l-2.9,2c-3-4.2-7.8-6.7-13-6.7
			C44.9,29.4,40,31.9,37,36.1z"/>
	</g>
	<g>
		<path class="st0" d="M67.7,45.6"/>
		<path class="st0" d="M50,63"/>
		<path class="st0" d="M32.3,45.6"/>
	</g>
	<g>
		<g>
			<path class="st0" d="M53.7,63"/>
		</g>
	</g>
	<g>
		<g>
			<polygon class="st1" points="53.3,46.1 48.2,41.7 50.6,39 51.9,40.2 50.7,41.5 53.1,43.6 54.3,42.2 55.6,43.4 			"/>
			<polygon class="st1" points="58.8,39.6 57.5,38.5 58.7,37.1 56.3,35.1 55.1,36.4 53.8,35.3 56.1,32.6 61.2,36.9 			"/>
			<path class="st1" d="M51.3,40.8l-3.4-2.9l4.4-5.1l3.4,2.9L51.3,40.8z M50.4,37.8l0.7,0.6l2.1-2.4l-0.7-0.6L50.4,37.8z"/>
			<path class="st1" d="M57.1,45.8l-3.4-2.9l4.4-5.1l3.4,2.9L57.1,45.8z M56.2,42.7l0.7,0.6l2.1-2.4l-0.7-0.6L56.2,42.7z"/>
			<path class="st2" d="M55,42.8"/>
			<path class="st2" d="M51.2,39.6"/>
		</g>
	</g>
</g>
</svg>
