<?xml version="1.0" encoding="utf-8"?>
<!-- Generator: Adobe Illustrator 24.0.0, SVG Export Plug-In . SVG Version: 6.00 Build 0)  -->
<svg version="1.1" id="Layer_1" xmlns="http://www.w3.org/2000/svg" xmlns:xlink="http://www.w3.org/1999/xlink" x="0px" y="0px"
	 viewBox="0 0 512 640" style="enable-background:new 0 0 512 640;" xml:space="preserve">
<style type="text/css">
	.st0{fill:#28B34B;}
	.st1{fill:none;}
</style>
<title>Health_Icons_line</title>
<path class="st0" d="M436.9,369.4h-35.8v-35.7c-0.1-2.3-1.9-4.2-4.3-4.3h-32c-2.2,0-3.8,2.1-3.8,4.3v35.7h-37.3
	c-2.2,0-3.8,2.1-3.8,4.3v32c-0.1,1.9,1.4,3.6,3.4,3.7c0.1,0,0.3,0,0.4,0h37.3v37.3c-0.1,1.9,1.4,3.6,3.4,3.7c0.1,0,0.3,0,0.4,0h32
	c2.2,0,4.3-1.5,4.3-3.7v-37.3h35.8c2.2,0,4.3-1.5,4.3-3.7v-32C441.1,371.4,439.2,369.5,436.9,369.4z M433.2,401.4h-36.3
	c-2.2,0-3.8,2.1-3.8,4.3v36.7h-24v-36.7c-0.1-2.3-1.9-4.2-4.3-4.3h-36.8v-24h36.8c2.2,0,4.3-1.5,4.3-3.7v-36.3h24v36.3
	c-0.1,1.9,1.4,3.6,3.4,3.7c0.1,0,0.3,0,0.4,0h36.3V401.4z"/>
<path class="st0" d="M42.2,421.1c2.2,0,4-1.8,4-4v-4.7c-0.1-4.8,0.4-9.6,1.5-14.2c0.5-2.1-0.8-4.3-3-4.8c0,0,0,0,0,0
	c-2.1-0.5-4.2,0.8-4.7,2.9c0,0,0,0.1,0,0.1c-1.2,5.3-1.8,10.7-1.8,16.1v4.7C38.2,419.3,40,421.1,42.2,421.1
	C42.2,421.1,42.2,421.1,42.2,421.1z"/>
<g>
	<path class="st1" d="M383.5,277.9c-60.2,0-108.9,48.8-108.9,108.9s48.8,108.9,108.9,108.9c60.1,0,108.9-48.8,108.9-108.9
		c0,0,0,0,0,0C492.4,326.7,443.7,277.9,383.5,277.9z"/>
	<path class="st1" d="M273,325c-1.2-0.4-2.1-1.3-2.5-2.5l-8.1-23.1c-10.2,5.2-22.3,7.9-35.9,7.9c-13.6,0-25.7-2.7-35.9-8l-11.7,22.9
		c-0.5,0.9-1.3,1.7-2.3,2c-2.3,0.7-4.6,1.5-7,2.2c1.9,14.7,19.6,45.8,56.9,45.8c24.8,0,39.3-13.5,45.8-21.5l0.1-0.2
		c2.6-7.9,6-15.4,10.1-22.6C279,327,275.9,326,273,325z"/>
	<path class="st0" d="M383.6,269.9c-38.7,0-74.9,19.1-96.7,51.1c-3.5-1-6.6-2-9.5-3l-8-22.8c23-15.9,28-42.9,29.2-53.6
		c13.6-2.4,27-19,32.1-40.6c2.4-10.4-1.1-20.3-8.7-24.2c-1.8-0.9-3.8-1.5-5.8-1.6c-1.1-0.1-2.2,0-3.3,0.2c3-12,5.6-30,6.7-42.5
		c1.6-19,1-46.9-23.3-70.3c-19.7-18.8-46.2-28.7-73.4-27.6c-26.5,1.1-50.3,12.1-67.1,31l-1.5,1.7C143.5,80,130,95.1,130.8,135.7
		c0.3,14.1,4.3,29.7,8.2,40.1c-2.2-0.2-4.4,0-6.4,0.8c-0.7,0.2-1.3,0.5-2,0.9c-6.1,3.3-11,11.9-8.3,23.6
		c5.1,21.7,18.5,38.3,32.1,40.7c1.3,10.5,6.6,37.4,29.3,53.4l-11.2,22c-6.9,2.2-14.6,4.3-22.8,6.6c-30.3,8.4-64.6,18-87.5,37.4
		c-5.4,4.5-10.1,9.8-14.1,15.7c-1.2,1.9-0.6,4.3,1.2,5.5c1.8,1.2,4.2,0.7,5.4-1.1c3.5-5.2,7.7-10,12.6-14
		c21.5-18.3,55-27.6,84.4-35.8c3.4-0.9,6.7-1.9,9.9-2.8c1.5,9.8,7.5,21.3,16.1,30.5c12.5,13.6,30.1,21.3,48.6,21.1
		c19.1,0,32.9-7.1,42-14.5c-1.3,6.9-1.9,13.9-1.9,20.9c0,48.1,29.6,91.3,74.4,108.8H57.8c-7.2,0-11.7-12.1-11.7-20.3v-38
		c0-2.2-1.8-4-4-4c-2.2,0-4,1.8-4,4v38.1c0,12,6.7,28.3,19.7,28.3h326.1c0,0,0,0.2,0.1,0.2c64.2-0.3,116.4-52.5,116.4-116.8
		C500.4,322.3,448.1,269.9,383.6,269.9z M162.2,237.6c-0.1-2.3-1.8-4.1-4.1-4.2c-11,0-23.3-14.8-27.9-34.5
		c-1.8-7.6,0.8-12.7,4.3-14.5c0.7-0.4,1.5-0.6,2.3-0.7c2.6-0.3,5.3,0.9,7.9,3.6c1.5,1.6,4.1,1.7,5.7,0.1c0.8-0.8,1.3-1.9,1.2-3
		c0.6-0.8,0.9-1.8,0.9-2.8c0-0.4-2.6-40.1,13-56.8c4.3-4.7,10.4-7.3,16.7-7.2c1.8,0,3.9,5.9,5.5,10.7c5.3,15.2,14,40.5,54.4,34.8
		c2.2-0.3,3.7-2.3,3.4-4.5c-0.1-0.9-0.6-1.8-1.3-2.4c-6.1-5.7-11.9-12.1-14.2-15.7c1.6,0.1,3.1,0.3,4.7,0.4
		c17.9,1.6,35,3.1,48.9-22.5c10.8,15.2,16.3,53.3,17.5,67.7c0,0.1,0,0.3,0.1,0.4c0.4,1.9,2,3.3,3.9,3.3h0.3c1.6-0.1,3-1.3,3.5-2.9
		c3.1-3.3,6.5-4.4,9.5-2.9c3.5,1.8,6.4,7.3,4.5,15.3c-4.6,19.6-16.8,34.8-27.7,34.8h-0.2c-0.8,0-1.5,0.2-2.2,0.6
		c-1.2,0.7-1.9,2-1.9,3.3c-0.3,6-3.2,36.7-28.4,52.3c-9.8,6-21.9,9.1-36,9.1s-26.1-3.2-35.9-9.4
		C165.8,274.3,162.5,243.6,162.2,237.6z M272.2,350.7c-6.5,8-21,21.5-45.8,21.5c-37.2,0-55-31.1-56.9-45.8c2.4-0.7,4.7-1.4,7-2.2
		c1-0.3,1.8-1.1,2.3-2l11.7-22.9c10.2,5.3,22.2,8,35.9,8c13.6,0,25.7-2.7,35.9-7.9l8.1,23.1c0.4,1.2,1.3,2.1,2.5,2.5
		c2.9,1,6,2,9.5,3c-4.2,7.2-7.6,14.7-10.1,22.6L272.2,350.7z M383.5,495.7c-60.2,0-108.9-48.8-108.9-108.9s48.8-108.9,108.9-108.9
		s108.9,48.8,108.9,108.9c0,0,0,0,0,0C492.4,446.9,443.6,495.7,383.5,495.7z"/>
</g>
</svg>
