<svg xmlns="http://www.w3.org/2000/svg" xmlns:xlink="http://www.w3.org/1999/xlink" version="1.1" x="0px" y="0px" viewBox="0 0 512 640" style="enable-background:new 0 0 512 512;" xml:space="preserve"><style type="text/css">
	.st0{display:none;}
	.st1{display:inline;}
</style><g><g><path d="M410.5,215.8h-0.4c-4.8-20.1-24.8-32.6-45-28.1l-64.4,14.4l-57.2-30.9c-9.2-5.1-20.8-1.8-25.9,7.4    c-4.1,7.3-2.9,16.4,2.9,22.4l14,15.5L168,231.3l-40.3-24.8c-8.5-5.2-19.6-2.5-24.7,6c-3.9,6.5-3.4,14.7,1.3,20.6l34.9,42.5    c4.1,5,10.1,7.9,16.5,7.9h2.2l91-8.6l-17.6,41.7c-4.2,9.7,0.3,20.9,10,25.1c2.4,1,5,1.6,7.7,1.6l4.7-0.7l9.7-2.5    c4.6-1.2,8.5-4,11.2-7.9l43.5-63.7l59-5.4c21-2,36.4-20.6,34.4-41.5C411.3,219.5,411,217.7,410.5,215.8z M231,191.4    c-1.7-1.9-1.5-4.9,0.4-6.6c1.5-1.3,3.6-1.5,5.3-0.6l42.5,22.7l-28.4,6.1L231,191.4z M262.6,324.1c-0.7,0.9-1.7,1.6-2.9,1.8    l-9.7,2.5c-2.4,0.9-5.1-0.4-6-2.8c-0.4-1.2-0.3-2.5,0.2-3.6l20.5-48.9l34.2-3.2L262.6,324.1z M392.5,238.5    c-3.9,5.6-10.1,9.3-16.9,10.1l-219.1,20.5c-2.3,0.2-4.6-0.7-6.1-2.5l-34.9-42.5c-1.3-1.5-1.1-3.8,0.5-5.1c0.4-0.3,0.8-0.6,1.3-0.7    h0.7l1.8,0.7l42.5,26.6c1.6,1.1,3.5,1.4,5.4,1.1l200.4-45c12.5-2.9,25,4.8,28.1,17.3C397.8,225.8,396.5,232.8,392.5,238.5z"/></g></g><g><path d="M256,507.8c-67.3,0-130.5-26.2-178.1-73.8C30.4,386.5,4.2,323.3,4.2,256S30.4,125.5,77.9,77.9   C125.5,30.4,188.7,4.2,256,4.2s130.5,26.2,178.1,73.8c47.6,47.6,73.8,110.8,73.8,178.1s-26.2,130.5-73.8,178.1   C386.5,481.6,323.3,507.8,256,507.8z M256,20.2C126,20.2,20.2,126,20.2,256S126,491.8,256,491.8S491.8,386,491.8,256   S386,20.2,256,20.2z"/></g><g class="st0"><g class="st1"><path d="M410.1,215.8L410.1,215.8c-4.8-20.1-24.8-32.6-45-28.1l-64.4,14.4l-57.2-30.9c-9.2-5.1-20.8-1.8-25.9,7.4    c-4.1,7.3-2.9,16.4,2.9,22.4l14,15.5L168,231.3l-40.3-24.8c-8.5-5.2-19.6-2.5-24.7,6c-3.9,6.5-3.4,14.7,1.3,20.6l34.9,42.5    c4.1,5,10.1,7.9,16.5,7.9h2.2l91-8.6l-17.6,41.7c-4.2,9.7,0.3,20.9,10,25.1c2.4,1,5,1.6,7.7,1.6l4.7-0.7l9.7-2.5    c4.6-1.2,8.5-4,11.2-7.9l43.5-63.7l59-5.4c21-2,36.4-20.6,34.4-41.5c-0.2-1.9-0.5-3.8-1-5.6L410.1,215.8z M231,191.4    c-1.7-1.9-1.5-4.9,0.4-6.6c1.5-1.3,3.6-1.5,5.3-0.6l42.5,22.7l-28.4,6.1L231,191.4z M262.6,324.1c-0.7,0.9-1.7,1.6-2.9,1.8    l-9.7,2.5c-2.4,0.9-5.1-0.4-6-2.8c-0.4-1.2-0.3-2.5,0.2-3.6l20.5-48.9l34.2-3.2L262.6,324.1z M392.5,238.5    c-3.9,5.6-10.1,9.3-16.9,10.1l-219.1,20.5c-2.3,0.2-4.6-0.7-6.1-2.5l-34.9-42.5c-1.3-1.5-1.1-3.8,0.5-5.1c0.4-0.3,0.8-0.6,1.3-0.7    h0.7l1.8,0.7l42.5,26.6c1.6,1.1,3.5,1.4,5.4,1.1l200.4-45c12.5-2.9,25,4.8,28.1,17.3l0,0C397.8,225.8,396.5,232.8,392.5,238.5z"/></g></g><text x="0" y="527" fill="#000000" font-size="5px" font-weight="bold" font-family="'Helvetica Neue', Helvetica, Arial-Unicode, Arial, Sans-serif">Created by Shocho</text><text x="0" y="532" fill="#000000" font-size="5px" font-weight="bold" font-family="'Helvetica Neue', Helvetica, Arial-Unicode, Arial, Sans-serif">from the Noun Project</text></svg>