<svg xmlns="http://www.w3.org/2000/svg" xmlns:xlink="http://www.w3.org/1999/xlink" version="1.1" x="0px" y="0px" viewBox="0 0 512 640" style="enable-background:new 0 0 512 512;" xml:space="preserve"><style type="text/css">
	.st0{display:none;}
	.st1{display:inline;}
</style><g><g><path d="M181.1,379.8c2.6,2.6,6,4.1,9.7,4.2c2,0,4.1-0.5,5.9-1.4c5.2-2.4,8.4-7.8,8-13.5l-1.7-25.6l58.9-49.5l25.6,64.4    c5.7,12.1,20.2,17.3,32.3,11.5c9.2-4.3,14.7-13.9,13.8-24l-15.2-108.1l56.5-56.5c5.8-5.8,9-13.6,9-21.8    c0.1-17.2-13.7-31.3-30.9-31.4c-8.4-0.1-16.5,3.3-22.4,9.3l-56.1,56.5l-108.1-15.6c-7.5-1-15.1,1.5-20.4,6.9    c-9.3,9.4-9.3,24.5,0.1,33.8c2.3,2.3,5.1,4.1,8.2,5.3l64.4,25.6l-49.9,58.9l-25.6-1.7c-7.6-0.5-14.2,5.3-14.7,13    c-0.2,3.9,1.2,7.8,4,10.6L181.1,379.8z"/></g></g><g><path d="M256,507.8c-67.3,0-130.5-26.2-178.1-73.8C30.4,386.5,4.2,323.3,4.2,256S30.4,125.5,77.9,77.9   C125.5,30.4,188.7,4.2,256,4.2s130.5,26.2,178.1,73.8c47.6,47.6,73.8,110.8,73.8,178.1s-26.2,130.5-73.8,178.1   C386.5,481.6,323.3,507.8,256,507.8z M256,20.2C126,20.2,20.2,126,20.2,256S126,491.8,256,491.8S491.8,386,491.8,256   S386,20.2,256,20.2z"/></g><g class="st0"><g class="st1"><path d="M383.8,159.5c0.1-17.2-13.7-31.3-30.9-31.4c-8.4-0.1-16.5,3.3-22.4,9.3l-56.1,56.5l-108.1-15.6c-7.5-1-15.1,1.5-20.4,6.9    l0,0c-9.3,9.4-9.3,24.5,0.1,33.8c2.3,2.3,5.1,4.1,8.2,5.3l64.4,25.6l-49.9,58.9l-25.6-1.7c-7.6-0.5-14.2,5.3-14.7,13    c-0.2,3.9,1.2,7.8,4,10.6l48.9,49.2c2.6,2.6,6,4.1,9.7,4.2c2,0,4.1-0.5,5.9-1.4c5.2-2.4,8.4-7.8,8-13.5l-1.7-25.6l58.9-49.5    l25.6,64.4c5.7,12.1,20.2,17.3,32.3,11.5c9.2-4.3,14.7-13.9,13.8-24l-15.2-108.1l56.5-56.5C380.5,175.5,383.8,167.6,383.8,159.5z"/></g></g><text x="0" y="527" fill="#000000" font-size="5px" font-weight="bold" font-family="'Helvetica Neue', Helvetica, Arial-Unicode, Arial, Sans-serif">Created by Shocho</text><text x="0" y="532" fill="#000000" font-size="5px" font-weight="bold" font-family="'Helvetica Neue', Helvetica, Arial-Unicode, Arial, Sans-serif">from the Noun Project</text></svg>