<?xml version="1.0" encoding="utf-8"?>
<!-- Generator: Adobe Illustrator 24.0.0, SVG Export Plug-In . SVG Version: 6.00 Build 0)  -->
<svg version="1.1" id="Layer_1" xmlns="http://www.w3.org/2000/svg" xmlns:xlink="http://www.w3.org/1999/xlink" x="0px" y="0px"
	 viewBox="0 0 100 125" style="enable-background:new 0 0 100 125;" xml:space="preserve">
<style type="text/css">
	.st0{fill:#9D3F21;}
	.st1{font-family:'OpenSans-Bold';}
	.st2{font-size:12px;}
</style>
<g>
	<path class="st0" d="M39.6,24.9h5.6v5.6c0,0.8,0.7,1.5,1.5,1.5H53c0.8,0,1.5-0.7,1.5-1.5v-5.6h5.6c0.8,0,1.5-0.7,1.5-1.5v-6.3
		c0-0.8-0.7-1.5-1.5-1.5h-5.6V10c0-0.8-0.7-1.5-1.5-1.5c0,0,0,0,0,0h-6.2c-0.8,0-1.5,0.7-1.5,1.5v5.6h-5.6c-0.8,0-1.5,0.7-1.5,1.5
		v6.3C38.1,24.2,38.8,24.9,39.6,24.9z M41.1,18.6h5.6c0.8,0,1.5-0.7,1.5-1.5v-5.6h3.3v5.6c0,0.8,0.7,1.5,1.5,1.5h5.6v3.3H53
		c-0.8,0-1.5,0.7-1.5,1.5V29h-3.2v-5.6c0-0.8-0.7-1.5-1.5-1.5h-5.6V18.6z"/>
	<path class="st0" d="M35,66h10.2c0.8,0,1.5-0.7,1.5-1.5V54.4c0-0.8-0.7-1.5-1.5-1.5H35c-0.8,0-1.5,0.7-1.5,1.5v10.2
		C33.5,65.3,34.2,66,35,66z M36.5,55.8h7.2V63h-7.2V55.8z"/>
	<path class="st0" d="M65,52.9H54.8c-0.8,0-1.5,0.7-1.5,1.5v10.2c0,0.8,0.7,1.5,1.5,1.5H65c0.8,0,1.5-0.7,1.5-1.5V54.4
		C66.5,53.5,65.8,52.9,65,52.9z M63.5,63h-7.2v-7.1h7.2V63z"/>
	<path class="st0" d="M35,47.8h10.2c0.8,0,1.5-0.7,1.5-1.5V36.2c0-0.8-0.7-1.5-1.5-1.5H35c-0.8,0-1.5,0.7-1.5,1.5v10.1
		C33.5,47.2,34.2,47.8,35,47.8z M36.5,37.7h7.2v7.2h-7.2V37.7z"/>
	<path class="st0" d="M53.3,36.2v10.1c0,0.8,0.7,1.5,1.5,1.5H65c0.8,0,1.5-0.7,1.5-1.5V36.2c0-0.8-0.7-1.5-1.5-1.5H54.8
		C54,34.7,53.3,35.4,53.3,36.2z M56.3,37.7h7.2v7.2h-7.2V37.7z"/>
	<path class="st0" d="M12,67.9h9.1c0.8,0,1.5-0.7,1.5-1.5v-9.1c0-0.8-0.7-1.5-1.5-1.5H12c-0.8,0-1.5,0.7-1.5,1.5v9.1
		C10.5,67.2,11.2,67.9,12,67.9z M13.5,58.8h6.1v6.1h-6.1V58.8z"/>
	<path class="st0" d="M12,48.9h9.1c0.8,0,1.5-0.7,1.5-1.5v-9.1c0-0.8-0.7-1.5-1.5-1.5H12c-0.8,0-1.5,0.7-1.5,1.5v9.1
		C10.5,48.3,11.2,48.9,12,48.9C12,48.9,12,48.9,12,48.9z M13.5,39.8h6.1v6.1h-6.1V39.8z"/>
	<path class="st0" d="M95,28.5H73.3V5c0-0.8-0.7-1.5-1.5-1.5H28.2c-0.8,0-1.5,0.7-1.5,1.5v23.5H5c-0.8,0-1.5,0.7-1.5,1.5v65
		c0,0.8,0.7,1.5,1.5,1.5h90c0.8,0,1.5-0.7,1.5-1.5V30C96.5,29.2,95.8,28.5,95,28.5z M20.1,93.5h-7V78.4h7V93.5z M26.7,93.5h-3.6
		V76.9c0-0.8-0.7-1.5-1.5-1.5h-10c-0.8,0-1.5,0.7-1.5,1.5v16.6H6.5v-62h20.2V93.5z M48.4,93.5h-5.3V73.9h5.3V93.5z M56.7,93.5h-5.3
		V73.9h5.3V93.5z M70.3,30v63.5H59.7V72.4c0-0.8-0.7-1.5-1.5-1.5H41.6c-0.8,0-1.5,0.7-1.5,1.5v21.1H29.7v-87h40.6V30z M86.9,93.5h-7
		V78.4h7V93.5z M93.5,93.5h-3.6V76.9c0-0.8-0.7-1.5-1.5-1.5h-10c-0.8,0-1.5,0.7-1.5,1.5v16.6h-3.6v-62h20.2V93.5z"/>
	<path class="st0" d="M78.9,67.9H88c0.8,0,1.5-0.7,1.5-1.5v-9.1c0-0.8-0.7-1.5-1.5-1.5h-9.1c-0.8,0-1.5,0.7-1.5,1.5v9.1
		C77.4,67.2,78,67.8,78.9,67.9z M80.4,58.8h6.1v6.1h-6.1V58.8z"/>
	<path class="st0" d="M78.9,48.9H88c0.8,0,1.5-0.7,1.5-1.5v-9.1c0-0.8-0.7-1.5-1.5-1.5h-9.1c-0.8,0-1.5,0.7-1.5,1.5v9.1
		C77.4,48.3,78,48.9,78.9,48.9z M80.4,39.8h6.1v6.1h-6.1V39.8z"/>
</g>
<text transform="matrix(1 0 0 1 14.7036 111.0868)" class="st0 st1 st2">Bệnh viện K</text>
</svg>
