<?xml version="1.0" encoding="utf-8"?>
<!-- Generator: Adobe Illustrator 24.0.0, SVG Export Plug-In . SVG Version: 6.00 Build 0)  -->
<svg version="1.1" id="Layer_1" xmlns="http://www.w3.org/2000/svg" xmlns:xlink="http://www.w3.org/1999/xlink" x="0px" y="0px"
	 viewBox="0 0 20 25" style="enable-background:new 0 0 20 25;" xml:space="preserve">
<style type="text/css">
	.st0{fill:#00A050;}
	.st1{font-family:'OpenSans-Bold';}
	.st2{font-size:3.5601px;}
</style>
<g>
	<polygon class="st0" points="5.2,6.2 7.1,6.2 7.1,4.3 9,4.3 9,2.4 7.1,2.4 7.1,0.5 5.2,0.5 5.2,2.4 3.3,2.4 3.3,4.3 5.2,4.3 	"/>
	<path class="st0" d="M11.9,0.5v7.6H0.5c0,4.1,0,7.4,0,11.4h1.9v-4.8h3.8v4.8h1.9v-4.8h3.8v4.8h7.6v-19H11.9z M17.6,2.4v3.8h-3.8
		V2.4H17.6z M17.6,8.1v3.8h-3.8V8.1H17.6z M2.4,12.9V10h3.8v2.9H2.4z M8.1,12.9V10h3.8v2.9H8.1z M13.8,17.6c0-1.4,0-2.4,0-3.8h3.8
		v3.8H13.8z"/>
</g>
<text transform="matrix(1 0 0 1 0.3359 23.3105)" class="st0 st1 st2">BV NĐTƯ 2</text>
</svg>
